<?xml version="1.0" encoding="UTF-8"?>
<svg xmlns="http://www.w3.org/2000/svg" xmlns:xlink="http://www.w3.org/1999/xlink" version="1.1" x="0" y="0" width="204.9" height="55.449" viewBox="0, 0, 204.9, 55.449">
  <g id="Layer_1">
    <path d="M86.398,35.547 L85.297,31.952 L76.654,31.952 L75.491,35.547 L70.807,35.547 L77.942,15.364 L84.009,15.364 L91.113,35.547 z M80.991,18.769 L77.722,28.704 L84.198,28.704 z" fill="#FFFFFE"></path>
    <path d="M123.634,35.547 L116.185,35.547 L116.185,15.364 L123.98,15.364 C130.109,15.364 133.378,18.864 133.378,25.33 C133.378,31.731 129.89,35.547 123.634,35.547 M122.975,19.086 L120.648,19.086 L120.648,31.825 L122.817,31.825 C126.904,31.825 129.01,30.438 129.01,25.297 C128.978,20.126 127.029,19.086 122.975,19.086" fill="#FFFFFE"></path>
    <path d="M162.599,13.251 L166.905,13.251 L166.905,35.547 L162.599,35.547 z" fill="#FFFFFE"></path>
    <path d="M196.853,42.295 C190.284,42.295 188.618,40.246 188.618,36.65 L193.176,36.65 C193.364,38.007 193.584,38.826 196.947,38.826 C199.933,38.826 200.405,38.007 200.405,37.312 C200.405,36.777 199.619,36.462 196.193,35.862 C192.61,35.232 188.806,35.01 188.806,31.952 C188.806,30.374 190.41,29.492 192.296,29.177 C190.064,28.42 189.153,26.496 189.153,25.013 C189.153,22.081 190.567,19.4 197.356,19.4 L204.522,19.4 L204.522,21.293 L201.914,22.239 C202.92,22.649 203.894,24.036 203.894,25.581 C203.894,28.545 202.354,30.942 196.476,30.942 C193.427,30.942 193.207,31.257 193.207,31.636 C193.207,32.109 193.49,32.172 197.921,32.74 C201.065,33.181 204.9,33.592 204.9,37.061 C204.9,39.52 203.234,42.295 196.853,42.295 M196.476,22.933 C194.15,22.933 193.584,23.879 193.584,25.235 C193.584,26.653 194.119,27.694 196.508,27.694 C198.834,27.694 199.367,26.685 199.367,25.235 C199.367,23.91 198.897,22.933 196.476,22.933" fill="#FFFFFE"></path>
    <path d="M35.203,0 L15.288,0 C15.288,4.139 18.643,7.494 22.782,7.494 L34.486,7.494 C41.522,7.494 47.628,12.573 48.504,19.516 C49.549,27.787 42.99,35.563 34.941,35.551 L15.044,35.551 C10.109,35.551 7.494,31.438 7.494,27.091 C7.494,22.744 11.073,19.11 15.288,19.11 L35.203,19.128 C35.203,14.998 31.826,11.639 27.73,11.639 C22.209,11.639 15.626,11.616 15.475,11.616 C6.99,11.616 0,18.548 0,27.091 C0,35.578 4.633,42.566 15.288,42.566 L35.203,42.566 C41.352,42.566 46.219,40.056 50.004,36.215 C62.978,23.259 53.868,-0.021 35.203,0 M12.5,27.44 C12.5,25.361 14.185,23.676 16.263,23.676 L35.229,23.676 L35.229,31.203 L16.263,31.203 C14.185,31.203 12.5,29.518 12.5,27.44 M34.913,46.47 C34.913,46.729 34.903,46.989 34.872,47.238 C33.694,58.185 18.066,58.186 16.896,47.238 C16.865,46.989 16.855,46.729 16.855,46.47 z" fill="#FFFFFE"></path>
    <path d="M101.7,29.082 L98.525,29.082 L98.525,35.547 L94.063,35.547 L94.063,15.364 L101.449,15.364 C109.307,15.364 109.967,19.495 109.967,22.27 C109.967,25.013 109.558,29.082 101.7,29.082 M101.638,19.085 L98.525,19.085 L98.525,25.518 L101.638,25.518 C104.938,25.518 105.409,23.721 105.409,22.333 C105.409,20.977 104.938,19.085 101.638,19.085" fill="#FFFFFE"></path>
    <path d="M138.748,17.73 C137.083,17.73 135.983,17.288 135.983,15.523 C135.983,13.725 137.146,13.283 138.748,13.283 C140.351,13.283 141.452,13.725 141.452,15.523 C141.452,17.288 140.351,17.73 138.748,17.73 M136.58,19.401 L140.917,19.401 L140.917,35.547 L136.58,35.547 z M136.58,35.547" fill="#FFFFFE"></path>
    <path d="M157.543,35.547 L156.568,32.961 C155.626,34.444 153.739,35.8 150.471,35.8 C146.887,35.8 144.058,34.222 144.058,30.753 C144.058,27.694 146.07,26.371 150.785,25.96 L155.06,25.581 C155.028,23.784 154.211,22.491 151.822,22.491 C149.527,22.491 148.867,23.532 148.867,25.108 L144.592,25.14 C144.592,21.829 145.945,19.148 151.728,19.148 C158.423,19.148 159.366,22.112 159.366,26.402 L159.366,35.547 z M151.445,28.893 C149.213,29.114 148.553,29.681 148.553,30.533 C148.553,31.636 149.402,32.425 151.508,32.425 C154.18,32.425 155.028,30.595 155.06,28.482 z" fill="#FFFFFE"></path>
    <path d="M178.282,35.8 C172.058,35.8 170.33,31.731 170.33,27.443 C170.33,23.185 172.09,19.148 178.344,19.148 C184.537,19.148 186.36,23.185 186.36,27.443 C186.36,31.795 184.537,35.8 178.282,35.8 M178.344,22.806 C175.389,22.806 174.573,24.793 174.573,27.443 C174.573,30.124 175.389,32.11 178.282,32.11 C181.236,32.11 182.117,30.155 182.117,27.443 C182.117,24.888 181.362,22.806 178.344,22.806" fill="#FFFFFE"></path>
  </g>
</svg>
